<?xml version="1.0" encoding="UTF-8"?>
<svg id="Calque_1" data-name="Calque 1" xmlns="http://www.w3.org/2000/svg" viewBox="0 0 862.84 117.57">
  <g>
    <path d="m0,3.15h61.6v17.05H21.68v19.57h30.93v13.22h-30.93v20.09h41.1v17.05H0V3.15Z"/>
    <path d="m71.82,3.15h21.68v69.92h39.65v17.05h-61.33V3.15Z"/>
    <path d="m200.86,72.42h-34.76l-5.95,17.71h-22.2L171.52,3.15h26.97l33.57,86.97h-25.24l-5.95-17.71Zm-4.49-13.49l-12.82-38.07h-.26l-12.69,38.07h25.77Z"/>
    <path d="m240.3,3.15h35.03c27.76,0,44.95,14.8,44.95,43.35s-16.26,43.62-42.17,43.62h-37.8V3.15Zm37.54,69.92c12.03,0,20.89-8.19,20.89-26.57s-9.39-26.3-22.21-26.3h-14.54v52.87h15.86Z"/>
    <g id="Calque_2" data-name="Calque 2">
      <g id="logo-H-fd_6" data-name="logo-H-fd 6">
        <polygon points="353.27 54.04 383.59 54.04 383.59 40.56 353.27 40.56 353.27 19.78 397.78 19.78 397.78 3.3 330.7 3.3 330.7 90.13 388.71 90.13 397.55 73.73 353.27 73.65 353.27 54.04"/>
        <polygon points="446.03 3.3 397.78 90.13 417.03 90.13 465.28 3.3 446.03 3.3"/>
      </g>
    </g>
  </g>
  <g>
    <path d="m470.74,57.22c0-18.99,12.22-32.38,31.34-32.38,13.79,0,22.76,5.46,25.62,15.35h.13V0h7.02v90.12h-7.02c.26-6.24.39-12.48.52-18.73h-.26c-2.47,11.44-11.96,19.77-26.66,19.77-18.6,0-30.69-13.13-30.69-33.94Zm57.09,1.56v-3.12c0-15.87-10.01-24.45-25.23-24.45s-24.84,10.92-24.84,26.01c0,16.78,9.75,27.57,24.58,27.57,16.13,0,25.49-11.96,25.49-26.01Z"/>
    <path d="m611.32,58.78h-52.54c.13,16.39,9.62,26.27,24.32,26.27,12.09,0,20.68-6.24,21.59-16.26h6.63c-.65,13.79-11.96,22.37-28.22,22.37-19.12,0-31.34-12.48-31.34-32.64s12.09-33.68,31.08-33.68c17.69,0,28.48,10.66,28.48,30.04v3.9Zm-6.63-5.98c0-14.18-8.32-21.85-21.59-21.85s-22.37,8.06-24.06,22.5h45.65v-.65Z"/>
    <path d="m625.37,68.67h6.5c0,10.27,5.98,16.39,20.68,16.39s21.72-4.94,21.72-13.13c0-3.38-1.17-6.24-4.29-7.93-2.86-1.43-8.58-2.34-18.47-3.25-10.79-1.04-17.17-2.47-20.94-5.07-3.51-2.47-5.2-6.76-5.2-11.44,0-11.57,10.66-19.38,27.05-19.38,18.21,0,26.27,8.19,26.27,22.89h-6.63c0-11.31-6.24-16.78-19.38-16.78-12.23,0-20.29,5.2-20.29,12.88,0,3.12.91,6.37,4.16,7.93,3.25,1.69,9.49,2.6,18.86,3.64,11.05,1.17,15.74,2.08,19.77,4.29,4.03,2.34,6.11,6.89,6.11,11.96,0,12.22-10.27,19.51-28.74,19.51-20.03,0-27.18-9.36-27.18-22.5Z"/>
    <path d="m697.81,5.07h7.67v12.09h-7.67V5.07Zm.39,20.81h7.02v64.25h-7.02V25.88Z"/>
    <path d="m785.2,97.28c0,12.62-11.57,20.29-30.95,20.29-20.42,0-32.64-6.76-32.64-18.6,0-7.54,5.85-13.01,14.05-13.01v-.13c-3.25-2.21-5.2-5.72-5.2-10.14s1.82-7.67,3.77-9.1v-.26c-6.11-4.03-9.49-10.4-9.49-18.6,0-13.92,10.01-22.89,26.14-22.89,6.89,0,12.74,1.69,17.17,4.68v-.13c-1.3-1.69-2.34-4.29-2.34-7.15,0-5.33,4.03-8.58,10.79-8.58,2.86,0,4.68.52,5.59.91v5.85c-.78-.39-2.47-.91-4.81-.91-4.29,0-6.89,1.95-6.89,5.85,0,2.47.91,5.46,2.21,8.45,2.86,3.77,4.42,8.45,4.42,13.92,0,13.92-10.01,22.89-26.14,22.89-4.68,0-8.71-.78-12.23-2.08-1.17,1.04-2.08,3.38-2.08,6.11,0,4.68,2.99,7.54,8.58,7.54h20.68c12.35,0,19.38,5.59,19.38,15.08Zm-7.02.65c0-6.24-4.55-9.62-13.27-9.62h-19.77c-10.4,0-16.52,3.51-16.52,10.4,0,8.45,9.75,12.75,25.62,12.75s23.93-5.46,23.93-13.53Zm-46.56-50.2c0,10.27,7.28,16.78,19.25,16.78s19.25-6.5,19.25-16.78-7.28-16.78-19.25-16.78-19.25,6.5-19.25,16.78Z"/>
    <path d="m800.29,25.88h7.02l-.26,17.82h.13c3.51-11.71,13.14-18.86,28.48-18.86,17.17,0,27.18,9.36,27.18,25.49v39.8h-7.02v-38.5c0-13-7.54-20.42-22.24-20.42-15.61,0-26.27,9.49-26.27,26.01v32.9h-7.02V25.88Z"/>
  </g>
</svg>