<?xml version="1.0" encoding="UTF-8"?>
<svg id="Calque_1" data-name="Calque 1" xmlns="http://www.w3.org/2000/svg" viewBox="0 0 880.66 88">
  <g>
    <path d="m0,0h61.6v17.05H21.68v19.57h30.93v13.22h-30.93v20.09h41.1v17.05H0V0Z"/>
    <path d="m71.82,0h21.68v69.92h39.65v17.05h-61.33V0Z"/>
    <path d="m200.86,69.26h-34.76l-5.95,17.71h-22.2L171.52,0h26.97l33.57,86.97h-25.24l-5.95-17.71Zm-4.49-13.49l-12.82-38.07h-.26l-12.69,38.07h25.77Z"/>
    <path d="m240.3,0h35.03c27.76,0,44.95,14.8,44.95,43.35s-16.26,43.62-42.17,43.62h-37.8V0Zm37.54,69.92c12.03,0,20.89-8.19,20.89-26.57s-9.39-26.3-22.21-26.3h-14.54v52.87h15.86Z"/>
    <g id="Calque_2" data-name="Calque 2">
      <g id="logo-H-fd_6" data-name="logo-H-fd 6">
        <polygon points="353.27 50.88 383.59 50.88 383.59 37.41 353.27 37.41 353.27 16.63 397.78 16.63 397.78 .15 330.7 .15 330.7 86.98 388.71 86.98 397.55 70.58 353.27 70.49 353.27 50.88"/>
        <polygon points="446.03 .15 397.78 86.98 417.03 86.98 465.28 .15 446.03 .15"/>
      </g>
    </g>
  </g>
  <g>
    <path d="m472.82,22.72h7.02l-.26,17.43h.13c2.73-11.7,11.57-18.47,23.02-18.47,12.48,0,20.55,6.5,22.11,17.43h.13c2.34-10.79,11.44-17.43,23.15-17.43,14.31,0,22.63,9.1,22.63,24.97v40.32h-7.02v-39.02c0-12.75-6.11-19.9-17.3-19.9-12.48,0-21.2,9.1-21.2,25.23v33.68h-7.02v-39.8c0-12.09-6.11-19.12-17.3-19.12-12.35,0-21.07,9.36-21.07,25.75v33.16h-7.02V22.72Z"/>
    <path d="m586.1,54.97c0-20.55,12.74-33.29,31.86-33.29s31.86,12.75,31.86,33.29-12.88,33.03-31.86,33.03-31.86-12.62-31.86-33.03Zm56.7,0c0-16.65-10.14-26.92-24.84-26.92s-24.84,10.27-24.84,26.92,10.14,26.66,24.84,26.66,24.84-10.14,24.84-26.66Z"/>
    <path d="m667.51,64.33V28.96h-11.18v-6.24h9.1c1.82,0,2.6-.91,2.73-4.03l.26-10.53h6.11v14.57h24.45v6.24h-24.45v34.98c0,10.79,3.9,17.17,14.18,17.17,4.16,0,8.32-.91,9.88-1.43v6.11c-1.82.65-5.85,1.56-10.4,1.56-14.44,0-20.68-9.1-20.68-23.02Z"/>
    <path d="m714.07,1.91h7.67v12.09h-7.67V1.91Zm.39,20.81h7.02v64.25h-7.02V22.72Z"/>
    <path d="m738.39,54.97c0-20.55,12.74-33.29,31.86-33.29s31.86,12.75,31.86,33.29-12.88,33.03-31.86,33.03-31.86-12.62-31.86-33.03Zm56.7,0c0-16.65-10.14-26.92-24.84-26.92s-24.84,10.27-24.84,26.92,10.14,26.66,24.84,26.66,24.84-10.14,24.84-26.66Z"/>
    <path d="m818.1,22.72h7.02l-.26,17.82h.13c3.51-11.7,13.14-18.86,28.48-18.86,17.17,0,27.18,9.36,27.18,25.49v39.8h-7.02v-38.5c0-13-7.54-20.42-22.24-20.42-15.61,0-26.27,9.49-26.27,26.01v32.9h-7.02V22.72Z"/>
  </g>
</svg>