<?xml version="1.0" encoding="UTF-8"?>
<svg id="Calque_1" data-name="Calque 1" xmlns="http://www.w3.org/2000/svg" viewBox="0 0 762.08 91.17">
  <g>
    <path d="m0,3.16h61.6v17.05H21.68v19.57h30.93v13.22h-30.93v20.09h41.1v17.05H0V3.16Z"/>
    <path d="m71.82,3.16h21.68v69.92h39.65v17.05h-61.33V3.16Z"/>
    <path d="m200.86,72.42h-34.76l-5.95,17.71h-22.2L171.52,3.16h26.97l33.57,86.97h-25.24l-5.95-17.71Zm-4.49-13.49l-12.82-38.07h-.26l-12.69,38.07h25.77Z"/>
    <path d="m240.3,3.16h35.03c27.76,0,44.95,14.8,44.95,43.35s-16.26,43.62-42.17,43.62h-37.8V3.16Zm37.54,69.92c12.03,0,20.89-8.19,20.89-26.57s-9.39-26.3-22.21-26.3h-14.54v52.87h15.86Z"/>
    <g id="Calque_2" data-name="Calque 2">
      <g id="logo-H-fd_6" data-name="logo-H-fd 6">
        <polygon points="353.27 54.04 383.59 54.04 383.59 40.57 353.27 40.57 353.27 19.79 397.78 19.79 397.78 3.31 330.7 3.31 330.7 90.13 388.71 90.13 397.55 73.74 353.27 73.65 353.27 54.04"/>
        <polygon points="446.03 3.31 397.78 90.13 417.03 90.13 465.28 3.31 446.03 3.31"/>
      </g>
    </g>
  </g>
  <g>
    <path d="m470.25,58c0-20.55,12.48-33.16,31.34-33.16,16.13,0,27.57,10.01,27.57,26.14h-6.63c0-12.23-8.84-19.77-20.81-19.77-14.57,0-24.45,10.14-24.45,26.79s9.62,26.79,23.67,26.79c12.61,0,21.85-7.41,21.98-19.51h6.5c0,16-11.83,25.88-28.61,25.88-18.34,0-30.56-12.62-30.56-33.16Z"/>
    <path d="m543.85,58.13c0-20.55,12.74-33.29,31.86-33.29s31.86,12.75,31.86,33.29-12.88,33.03-31.86,33.03-31.86-12.62-31.86-33.03Zm56.7,0c0-16.65-10.14-26.92-24.84-26.92s-24.84,10.27-24.84,26.92,10.14,26.66,24.84,26.66,24.84-10.14,24.84-26.66Z"/>
    <path d="m621.49,57.22c0-18.99,12.22-32.38,31.34-32.38,13.79,0,22.76,5.46,25.62,15.35h.13V0h7.02v90.12h-7.02c.26-6.24.39-12.48.52-18.73h-.26c-2.47,11.44-11.96,19.77-26.66,19.77-18.6,0-30.69-13.14-30.69-33.94Zm57.09,1.56v-3.12c0-15.87-10.01-24.45-25.23-24.45s-24.84,10.92-24.84,26.01c0,16.78,9.75,27.57,24.58,27.57,16.13,0,25.49-11.96,25.49-26.01Z"/>
    <path d="m762.08,58.78h-52.54c.13,16.39,9.62,26.27,24.32,26.27,12.09,0,20.68-6.24,21.59-16.26h6.63c-.65,13.79-11.96,22.37-28.22,22.37-19.12,0-31.34-12.48-31.34-32.64s12.09-33.68,31.08-33.68c17.69,0,28.48,10.66,28.48,30.04v3.9Zm-6.63-5.98c0-14.18-8.32-21.85-21.59-21.85s-22.37,8.06-24.06,22.5h45.65v-.65Z"/>
  </g>
</svg>