<?xml version="1.0" encoding="utf-8"?>
<!-- Generator: Adobe Illustrator 27.1.1, SVG Export Plug-In . SVG Version: 6.00 Build 0)  -->
<svg version="1.1" id="Calque_2_00000013190951935228242760000010555647446271990923_"
	 xmlns="http://www.w3.org/2000/svg" xmlns:xlink="http://www.w3.org/1999/xlink" x="0px" y="0px" viewBox="0 0 454 84.9"
	 style="enable-background:new 0 0 454 84.9;" xml:space="preserve">
<style type="text/css">
	.st0{fill:#ffffff;}
</style>
<g id="Calque_1-2">
	<g>
		<path class="st0" d="M0,0h60.1v16.6H21.2v19.1h30.2v12.9H21.2v19.6h40.1v16.6H0V0z"/>
		<path class="st0" d="M70.1,0h21.2v68.2h38.7v16.6H70.1C70.1,84.9,70.1,0,70.1,0z"/>
		<path class="st0" d="M196,67.6h-33.9l-5.8,17.3h-21.7L167.4,0h26.3l32.8,84.9h-24.6L196,67.6L196,67.6z M191.6,54.4l-12.5-37.2
			h-0.3l-12.4,37.2H191.6z"/>
		<path class="st0" d="M234.5,0h34.2c27.1,0,43.9,14.4,43.9,42.3s-15.9,42.6-41.1,42.6h-36.9L234.5,0L234.5,0z M271.1,68.2
			c11.7,0,20.4-8,20.4-25.9s-9.2-25.7-21.7-25.7h-14.2v51.6H271.1L271.1,68.2z"/>
		<g id="Calque_2-2">
			<g id="logo-H-fd_6">
				<polygon class="st0" points="344.7,49.7 374.3,49.7 374.3,36.5 344.7,36.5 344.7,16.2 388.1,16.2 388.1,0.2 322.7,0.2 
					322.7,84.9 379.3,84.9 387.9,68.9 344.7,68.8 				"/>
				<polygon class="st0" points="435.2,0.2 388.1,84.9 406.9,84.9 454,0.2 				"/>
			</g>
		</g>
	</g>
</g>
</svg>
