<svg id="logo-presentation" xmlns="http://www.w3.org/2000/svg" xmlns:xlink="http://www.w3.org/1999/xlink" viewBox="0 0 454 84.9" shape-rendering="geometricPrecision" text-rendering="geometricPrecision">
<style><![CDATA[
#logo-presentation-s-rect1_to {animation: logo-presentation-s-rect1_to__to 1000ms linear 1 normal forwards}@keyframes logo-presentation-s-rect1_to__to { 0% {transform: translate(229.211771px,42.550001px);animation-timing-function: cubic-bezier(0.645,0.045,0.355,1)} 10% {transform: translate(603.760679px,42.55px)} 100% {transform: translate(603.760679px,42.55px)}} #logo-presentation-s-rect2_to {animation: logo-presentation-s-rect2_to__to 3000ms linear 1 normal forwards}@keyframes logo-presentation-s-rect2_to__to { 0% {transform: translate(80.593403px,43.871701px);animation-timing-function: cubic-bezier(0.645,0.045,0.355,1)} 10% {transform: translate(408.323697px,43.871701px)} 100% {transform: translate(408.323697px,43.871701px)}} #logo-presentation-s-polygon2_to {animation: logo-presentation-s-polygon2_to__to 3000ms linear 1 normal forwards}@keyframes logo-presentation-s-polygon2_to__to { 0% {transform: translate(94.250003px,42.450002px);animation-timing-function: cubic-bezier(0.645,0.045,0.355,1)} 10% {transform: translate(421.980296px,42.450002px)} 100% {transform: translate(421.980296px,42.450002px)}}
]]></style>
<g id="logo-presentation-u-calque_1-2"><g id="logo-presentation-s-g1"><path id="logo-presentation-s-path1" d="M70.1,0h21.2v68.2h38.7v16.6h-59.9c0,.1,0-84.8,0-84.8Z" fill="#fff"/><path id="logo-presentation-s-path2" d="M196,67.6h-33.9l-5.8,17.3h-21.7L167.4,0h26.3l32.8,84.9h-24.6L196,67.6v0Zm-4.4-13.2L179.1,17.2h-.3L166.4,54.4h25.2Z" fill="#fff"/><path id="logo-presentation-s-path3" d="M234.5,0h34.2c27.1,0,43.9,14.4,43.9,42.3s-15.9,42.6-41.1,42.6h-36.9L234.5,0v0Zm36.6,68.2c11.7,0,20.4-8,20.4-25.9s-9.2-25.7-21.7-25.7h-14.2v51.6h15.5v0Z" fill="#fff"/><g id="logo-presentation-u-calque_2-2"><g id="logo-presentation-u-logo-h-fd_6"><polygon id="logo-presentation-s-polygon1" points="344.7,49.7 374.3,49.7 374.3,36.5 344.7,36.5 344.7,16.2 388.1,16.2 388.1,0.2 322.7,0.2 322.7,84.9 379.3,84.9 387.9,68.9 344.7,68.8" fill="#fff"/></g></g></g><g id="logo-presentation-s-rect1_to" transform="translate(229.211771,42.550001)"><rect id="logo-presentation-s-rect1" width="406.416028" height="200.449776" rx="0" ry="0" transform="rotate(29.109608) scale(0.819857,2.162317) translate(-195.685718,-95.102664)" stroke-width="0"/></g><path id="logo-presentation-s-path4" d="M0,0h60.1v16.6h-38.9v19.1h30.2v12.9h-30.2v19.6h40.1v16.6h-61.3L0,0Z" fill="#fff"/><g id="logo-presentation-s-rect2_to" transform="translate(80.593403,43.871701)"><rect id="logo-presentation-s-rect2" width="406.416028" height="200.449776" rx="0" ry="0" transform="rotate(29.109608) scale(0.025319,2.162317) translate(-195.685718,-95.102664)" stroke-width="0"/></g><g id="logo-presentation-s-polygon2_to" transform="translate(94.250003,42.450002)"><polygon id="logo-presentation-s-polygon2" points="435.2,0.2 388.1,84.9 406.9,84.9 454,0.2" transform="translate(-421.050003,-42.550002)" fill="#fff" stroke-width="7"/></g></g></svg>
